<svg aria-hidden="true" style="position: absolute; width: 0; height: 0; overflow: hidden;" version="1.1" xmlns="http://www.w3.org/2000/svg" xmlns:xlink="http://www.w3.org/1999/xlink">
<defs>
<symbol id="icon-emai" viewBox="0 0 41 32">
<path fill="none" stroke="#fafafa" style="stroke: var(--color1, #fafafa)" stroke-linejoin="round" stroke-linecap="round" stroke-miterlimit="4" stroke-width="2.7429" d="M5.943 2.286h29.257c0.969 0.003 1.898 0.365 2.583 1.007s1.071 1.513 1.074 2.421v20.571c-0.003 0.909-0.389 1.779-1.074 2.421s-1.614 1.005-2.583 1.007h-29.257c-0.969-0.003-1.898-0.365-2.583-1.007s-1.071-1.513-1.074-2.421v-20.571c0.003-0.908 0.389-1.779 1.074-2.421s1.614-1.004 2.583-1.007v0z"></path>
<path fill="none" stroke="#fafafa" style="stroke: var(--color1, #fafafa)" stroke-linejoin="round" stroke-linecap="round" stroke-miterlimit="4" stroke-width="2.7429" d="M38.857 5.713l-18.286 12-18.286-12"></path>
</symbol>
<symbol id="icon-plus" viewBox="0 0 32 32">
<path fill="none" stroke="#fafafa" style="stroke: var(--color1, #fafafa)" stroke-linejoin="round" stroke-linecap="round" stroke-miterlimit="4" stroke-width="3.5556" d="M16 6.667v18.667"></path>
<path fill="none" stroke="#fafafa" style="stroke: var(--color1, #fafafa)" stroke-linejoin="round" stroke-linecap="round" stroke-miterlimit="4" stroke-width="3.5556" d="M6.667 16h18.667"></path>
</symbol>
<symbol id="icon-Icon" viewBox="0 0 30 32">
<path stroke-linejoin="round" stroke-linecap="round" stroke-miterlimit="4" stroke-width="3" d="M27 29.071c0-2.093 0-3.14-0.258-3.992-0.582-1.918-2.082-3.418-4-4-0.852-0.258-1.898-0.258-3.992-0.258h-7.5c-2.093 0-3.14 0-3.992 0.258-1.918 0.582-3.418 2.082-4 4-0.258 0.852-0.258 1.898-0.258 3.992M21.75 8.821c0 3.728-3.022 6.75-6.75 6.75s-6.75-3.022-6.75-6.75c0-3.728 3.022-6.75 6.75-6.75s6.75 3.022 6.75 6.75z"></path>
</symbol>
<symbol id="icon-edit-01" viewBox="0 0 30 32">
<path stroke-linejoin="round" stroke-linecap="round" stroke-miterlimit="4" stroke-width="2.7733" d="M3.47 24.602c0.098-0.882 0.147-1.323 0.28-1.735 0.118-0.366 0.286-0.714 0.497-1.035 0.239-0.362 0.552-0.676 1.18-1.303l15.729-15.729c1.375-1.375 3.603-1.375 4.978 0v0c1.375 1.375 1.375 3.603 0 4.978l-15.729 15.729c-0.628 0.628-0.941 0.941-1.303 1.18-0.321 0.212-0.669 0.379-1.035 0.497-0.412 0.134-0.853 0.182-1.735 0.281l-3.22 0.358 0.358-3.22z"></path>
</symbol>
<symbol id="icon-arrow-right" viewBox="0 0 30 32">
<path fill="none" stroke="#fafafa" style="stroke: var(--color1, #fafafa)" stroke-linejoin="round" stroke-linecap="round" stroke-miterlimit="4" stroke-width="2.1895" d="M4.632 16h16.842"></path>
<path fill="none" stroke="#fafafa" style="stroke: var(--color1, #fafafa)" stroke-linejoin="round" stroke-linecap="round" stroke-miterlimit="4" stroke-width="2.1895" d="M15.158 7.158l8.842 8.842-8.842 8.842"></path>
</symbol>
<symbol id="icon-search" viewBox="0 0 32 32">
<path stroke-linejoin="round" stroke-linecap="round" stroke-miterlimit="4" stroke-width="2.6667" d="M14.667 25.333c5.891 0 10.667-4.776 10.667-10.667s-4.776-10.667-10.667-10.667c-5.891 0-10.667 4.776-10.667 10.667s4.776 10.667 10.667 10.667z"></path>
<path stroke-linejoin="round" stroke-linecap="round" stroke-miterlimit="4" stroke-width="2.6667" d="M28.001 28l-5.8-5.8"></path>
</symbol>
<symbol id="icon-lock-02" viewBox="0 0 30 32">
<path fill="none" opacity="0.8" stroke="#fafafa" style="stroke: var(--color1, #fafafa)" stroke-linejoin="round" stroke-linecap="round" stroke-miterlimit="4" stroke-width="1.6842" d="M21.474 14.737v-3.789c0-3.488-2.828-6.316-6.316-6.316s-6.316 2.828-6.316 6.316v3.789M9.853 27.368h10.611c2.122 0 3.183 0 3.994-0.413 0.713-0.363 1.293-0.943 1.656-1.656 0.413-0.811 0.413-1.872 0.413-3.994v-0.505c0-2.122 0-3.183-0.413-3.994-0.363-0.713-0.943-1.293-1.656-1.656-0.811-0.413-1.872-0.413-3.994-0.413h-10.611c-2.122 0-3.183 0-3.994 0.413-0.713 0.363-1.293 0.943-1.656 1.656-0.413 0.811-0.413 1.872-0.413 3.994v0.505c0 2.122 0 3.183 0.413 3.994 0.363 0.713 0.943 1.293 1.656 1.656 0.811 0.413 1.872 0.413 3.994 0.413z"></path>
</symbol>
<symbol id="icon-mail-01" viewBox="0 0 30 32">
<path fill="none" opacity="0.8" stroke="#fafafa" style="stroke: var(--color1, #fafafa)" stroke-linejoin="round" stroke-linecap="round" stroke-miterlimit="4" stroke-width="1.6842" d="M2.526 9.684l10.314 7.22c0.835 0.585 1.253 0.877 1.707 0.99 0.401 0.1 0.821 0.1 1.222 0 0.454-0.113 0.872-0.406 1.707-0.99l10.314-7.22M8.589 26.105h13.137c2.122 0 3.183 0 3.994-0.413 0.713-0.363 1.293-0.943 1.656-1.656 0.413-0.811 0.413-1.872 0.413-3.994v-8.084c0-2.122 0-3.183-0.413-3.994-0.363-0.713-0.943-1.293-1.656-1.656-0.811-0.413-1.872-0.413-3.994-0.413h-13.137c-2.122 0-3.183 0-3.994 0.413-0.713 0.363-1.293 0.943-1.656 1.656-0.413 0.811-0.413 1.872-0.413 3.994v8.084c0 2.122 0 3.183 0.413 3.994 0.363 0.713 0.943 1.293 1.656 1.656 0.811 0.413 1.872 0.413 3.994 0.413z"></path>
</symbol>
<symbol id="icon-user-01" viewBox="0 0 30 32">
<path fill="none" opacity="0.8" stroke="#fafafa" style="stroke: var(--color1, #fafafa)" stroke-linejoin="round" stroke-linecap="round" stroke-miterlimit="4" stroke-width="1.6842" d="M25.263 27.368c0-1.763 0-2.644-0.218-3.362-0.49-1.615-1.753-2.878-3.368-3.368-0.717-0.218-1.599-0.218-3.362-0.218h-6.316c-1.763 0-2.644 0-3.361 0.218-1.615 0.49-2.878 1.753-3.368 3.368-0.218 0.717-0.218 1.599-0.218 3.362M20.842 10.316c0 3.139-2.545 5.684-5.684 5.684s-5.684-2.545-5.684-5.684 2.545-5.684 5.684-5.684c3.139 0 5.684 2.545 5.684 5.684z"></path>
</symbol>
<symbol id="icon-logoTablet" viewBox="0 0 32 32">
<path fill="#8baa36" style="fill: var(--color2, #8baa36)" d="M8.727 0h14.545c4.82 0 8.727 3.907 8.727 8.727v14.545c0 4.82-3.907 8.727-8.727 8.727h-14.545c-4.82 0-8.727-3.907-8.727-8.727v-14.545c0-4.82 3.907-8.727 8.727-8.727z"></path>
<path fill="none" stroke="#fafafa" style="stroke: var(--color1, #fafafa)" stroke-linejoin="round" stroke-linecap="round" stroke-miterlimit="4" stroke-width="1.4545" d="M7.273 7.347v3.966c0 1.132 0.494 2.135 1.26 2.784 0.375 0.317 0.622 0.746 0.622 1.221v6.62c0 0.736 0.633 1.333 1.412 1.333s1.412-0.597 1.412-1.333v-6.62c0-0.476 0.248-0.904 0.622-1.221 0.766-0.649 1.26-1.652 1.26-2.784v0"></path>
<path fill="none" stroke="#fafafa" style="stroke: var(--color1, #fafafa)" stroke-linejoin="round" stroke-linecap="round" stroke-miterlimit="4" stroke-width="1.4545" d="M10.567 11.717v-4.444"></path>
<path fill="none" stroke="#fafafa" style="stroke: var(--color1, #fafafa)" stroke-linejoin="round" stroke-linecap="round" stroke-miterlimit="4" stroke-width="1.4545" d="M23.273 8.208c0-0.491-0.422-0.889-0.941-0.889h-0.941c-1.559 0-2.823 1.194-2.823 2.667v5.333c0 1.159 0.788 2.136 1.882 2.503v4.117c0 0.736 0.633 1.333 1.412 1.333s1.412-0.597 1.412-1.333v-13.732z"></path>
</symbol>
</defs>
</svg>
