<svg aria-hidden="true" style="position: absolute; width: 0; height: 0; overflow: hidden;" version="1.1" xmlns="http://www.w3.org/2000/svg" xmlns:xlink="http://www.w3.org/1999/xlink">
<defs>
<symbol id="icon-Group-53" viewBox="0 0 52 32">
<path fill="red" style="fill: var(green, blue)" d="M41.413 14.638c0 0 0 0 0 0l-0.747 2.15c-0.009 0.025-0.011 0.051-0.005 0.077s0.017 0.049 0.034 0.069l1.463 1.655c0.133 0.155 0.39 0.065 0.397-0.139l0.202-5.978c0.001-0.041-0.009-0.082-0.029-0.118s-0.051-0.065-0.088-0.085c-0.037-0.020-0.078-0.028-0.12-0.026s-0.082 0.017-0.116 0.041l-4.95 3.456c-0.169 0.118-0.103 0.379 0.101 0.403l2.207 0.294c0.026 0.004 0.053 0 0.077-0.010s0.046-0.026 0.062-0.047l1.409-1.798c0.009-0.011 0.021-0.019 0.035-0.021s0.028-0.001 0.041 0.006c0.013 0.007 0.022 0.017 0.027 0.030s0.006 0.027 0.001 0.041c0 0 0 0-0 0z"></path>
<path fill="red" stroke="red" style="stroke: var(red, red)" stroke-linejoin="round" stroke-linecap="butt" stroke-miterlimit="4" stroke-width="0.8348" d="M5.918 10.431c4.133 3.461 14.047 15.084 18.639 7.82 5.74-9.080-9.703-9.547-9.071-1.713s14.857 13.474 24.645 0.677"></path>
</symbol>
<symbol id="icon-arrow-narrow-right" viewBox="0 0 34 32">
<path fill="none" stroke="#3e4462" style="stroke: var(--color2, #3e4462)" stroke-linejoin="round" stroke-linecap="round" stroke-miterlimit="4" stroke-width="2.6667" d="M6.222 16h21.333M27.556 16l-8-8M27.556 16l-8 8"></path>
</symbol>
<symbol id="icon-yb" viewBox="0 0 43 32">
<path fill="#8baa36" style="fill: var(--color-bg-icons, #8baa36)" d="M40.273 6.595c0-3.5-2.621-6.315-5.859-6.315-4.386-0.201-8.86-0.279-13.432-0.279h-1.425c-4.561 0-9.042 0.078-13.428 0.28-3.23 0-5.851 2.831-5.851 6.331-0.198 2.768-0.282 5.537-0.277 8.306-0.008 2.769 0.082 5.54 0.269 8.314 0 3.5 2.621 6.339 5.851 6.339 4.608 0.21 9.335 0.303 14.141 0.296 4.814 0.015 9.528-0.083 14.141-0.296 3.238 0 5.859-2.839 5.859-6.339 0.19-2.776 0.277-5.545 0.269-8.322 0.018-2.769-0.068-5.54-0.258-8.314zM16.39 22.546v-15.283l11.481 7.638-11.481 7.645z"></path>
</symbol>
<symbol id="icon-twitter" viewBox="0 0 38 32">
<path fill="#8baa36" style="fill: var(--color-bg-icons, #8baa36)" d="M33.882 4.064c-1.271 0.537-2.616 0.891-3.992 1.050 1.446-0.823 2.534-2.131 3.059-3.678-1.367 0.777-2.861 1.323-4.416 1.613-0.655-0.667-1.443-1.198-2.315-1.56s-1.812-0.548-2.761-0.546c-3.841 0-6.95 2.978-6.95 6.65-0.003 0.511 0.057 1.020 0.179 1.517-2.755-0.126-5.452-0.809-7.919-2.006s-4.651-2.882-6.41-4.946c-0.617 1.012-0.944 2.166-0.945 3.342 0 2.306 1.237 4.344 3.106 5.538-1.107-0.026-2.191-0.31-3.161-0.83v0.082c0 3.225 2.4 5.909 5.576 6.52-0.597 0.155-1.213 0.233-1.831 0.233-0.439 0.001-0.876-0.041-1.307-0.124 0.883 2.642 3.453 4.564 6.498 4.619-2.474 1.854-5.511 2.856-8.634 2.848-0.554-0.001-1.108-0.033-1.659-0.096 3.177 1.973 6.871 3.016 10.64 3.006 12.802 0 19.796-10.136 19.796-18.927 0-0.288-0.008-0.576-0.022-0.858 1.358-0.939 2.532-2.105 3.468-3.445z"></path>
</symbol>
<symbol id="icon-insta" viewBox="0 0 32 32">
<path fill="#8baa36" style="fill: var(--color-bg-icons, #8baa36)" d="M22.666 2.666c1.767 0.005 3.459 0.709 4.709 1.959s1.953 2.942 1.959 4.709v13.333c-0.005 1.767-0.709 3.459-1.959 4.709s-2.942 1.953-4.709 1.959h-13.333c-1.767-0.005-3.459-0.709-4.709-1.959s-1.953-2.942-1.959-4.709v-13.333c0.005-1.767 0.709-3.459 1.959-4.709s2.942-1.953 4.709-1.959h13.333zM22.666 0h-13.333c-5.134 0-9.334 4.2-9.334 9.334v13.333c0 5.134 4.2 9.334 9.334 9.334h13.333c5.134 0 9.334-4.2 9.334-9.334v-13.333c0-5.134-4.2-9.334-9.334-9.334z"></path>
<path fill="#8baa36" style="fill: var(--color-bg-icons, #8baa36)" d="M24.666 9.337c-0.395 0-0.782-0.117-1.111-0.337s-0.585-0.532-0.737-0.898-0.191-0.768-0.114-1.156c0.077-0.388 0.267-0.744 0.547-1.024s0.636-0.47 1.024-0.547c0.388-0.077 0.79-0.038 1.155 0.114s0.678 0.408 0.898 0.737c0.22 0.329 0.337 0.716 0.337 1.111 0.001 0.263-0.051 0.523-0.151 0.766s-0.248 0.464-0.433 0.649c-0.186 0.186-0.407 0.333-0.649 0.433s-0.503 0.152-0.766 0.151zM16 10.67c1.055 0 2.086 0.313 2.963 0.899s1.561 1.419 1.964 2.394c0.404 0.975 0.509 2.047 0.303 3.082s-0.714 1.985-1.46 2.731c-0.746 0.746-1.696 1.254-2.731 1.46s-2.107 0.1-3.082-0.304c-0.975-0.404-1.808-1.087-2.394-1.964s-0.899-1.908-0.899-2.963c0.002-1.414 0.564-2.77 1.564-3.77s2.356-1.562 3.77-1.564zM16 8.003c-1.582 0-3.129 0.469-4.445 1.348s-2.341 2.128-2.947 3.59c-0.605 1.462-0.764 3.070-0.455 4.622s1.071 2.977 2.189 4.096c1.119 1.119 2.544 1.881 4.096 2.19s3.16 0.15 4.622-0.455c1.462-0.605 2.711-1.631 3.59-2.946s1.348-2.862 1.348-4.445c0-2.122-0.843-4.157-2.343-5.657s-3.535-2.343-5.657-2.343z"></path>
</symbol>
<symbol id="icon-fb" viewBox="0 0 30 32">
<path fill="#8baa36" style="fill: var(--color-bg-icons, #8baa36)" d="M27.429 14.559c0-7.619-6.141-13.797-13.714-13.797s-13.714 6.178-13.714 13.797c0 6.886 5.014 12.594 11.571 13.63v-9.641h-3.483v-3.99h3.483v-3.040c0-3.457 2.048-5.369 5.18-5.369 1.5 0 3.070 0.27 3.070 0.27v3.396h-1.73c-1.703 0-2.235 1.063-2.235 2.156v2.587h3.803l-0.607 3.99h-3.195v9.642c6.557-1.035 11.572-6.743 11.572-13.631z"></path>
</symbol>
<symbol id="icon-emai" viewBox="0 0 41 32">
<path fill="none" stroke="#fafafa" style="stroke: var(--color3, #fafafa)" stroke-linejoin="round" stroke-linecap="round" stroke-miterlimit="4" stroke-width="2.7429" d="M5.943 2.286h29.257c0.969 0.003 1.898 0.365 2.583 1.007s1.071 1.513 1.074 2.421v20.571c-0.003 0.909-0.389 1.779-1.074 2.421s-1.614 1.005-2.583 1.007h-29.257c-0.969-0.003-1.898-0.365-2.583-1.007s-1.071-1.513-1.074-2.421v-20.571c0.003-0.908 0.389-1.779 1.074-2.421s1.614-1.004 2.583-1.007v0z"></path>
<path fill="none" stroke="#fafafa" style="stroke: var(--color3, #fafafa)" stroke-linejoin="round" stroke-linecap="round" stroke-miterlimit="4" stroke-width="2.7429" d="M38.857 5.713l-18.286 12-18.286-12"></path>
</symbol>
<symbol id="icon-plus" viewBox="0 0 32 32">
<path fill="none" stroke="#fafafa" style="stroke: var(--color3, #fafafa)" stroke-linejoin="round" stroke-linecap="round" stroke-miterlimit="4" stroke-width="3.5556" d="M16 6.667v18.667"></path>
<path fill="none" stroke="#fafafa" style="stroke: var(--color3, #fafafa)" stroke-linejoin="round" stroke-linecap="round" stroke-miterlimit="4" stroke-width="3.5556" d="M6.667 16h18.667"></path>
</symbol>
<symbol id="icon-Icon" viewBox="0 0 30 32">
<path stroke-linejoin="round" stroke-linecap="round" stroke-miterlimit="4" stroke-width="3" d="M27 29.071c0-2.093 0-3.14-0.258-3.992-0.582-1.918-2.082-3.418-4-4-0.852-0.258-1.898-0.258-3.992-0.258h-7.5c-2.093 0-3.14 0-3.992 0.258-1.918 0.582-3.418 2.082-4 4-0.258 0.852-0.258 1.898-0.258 3.992M21.75 8.821c0 3.728-3.022 6.75-6.75 6.75s-6.75-3.022-6.75-6.75c0-3.728 3.022-6.75 6.75-6.75s6.75 3.022 6.75 6.75z"></path>
</symbol>
<symbol id="icon-edit-01" viewBox="0 0 30 32">
<path stroke-linejoin="round" stroke-linecap="round" stroke-miterlimit="4" stroke-width="2.7733" d="M3.47 24.602c0.098-0.882 0.147-1.323 0.28-1.735 0.118-0.366 0.286-0.714 0.497-1.035 0.239-0.362 0.552-0.676 1.18-1.303l15.729-15.729c1.375-1.375 3.603-1.375 4.978 0v0c1.375 1.375 1.375 3.603 0 4.978l-15.729 15.729c-0.628 0.628-0.941 0.941-1.303 1.18-0.321 0.212-0.669 0.379-1.035 0.497-0.412 0.134-0.853 0.182-1.735 0.281l-3.22 0.358 0.358-3.22z"></path>
</symbol>
<symbol id="icon-arrow-right" viewBox="0 0 30 32">
<path fill="none" stroke="#fafafa" style="stroke: var(--color3, #fafafa)" stroke-linejoin="round" stroke-linecap="round" stroke-miterlimit="4" stroke-width="2.1895" d="M4.632 16h16.842"></path>
<path fill="none" stroke="#fafafa" style="stroke: var(--color3, #fafafa)" stroke-linejoin="round" stroke-linecap="round" stroke-miterlimit="4" stroke-width="2.1895" d="M15.158 7.158l8.842 8.842-8.842 8.842"></path>
</symbol>
<symbol id="icon-search" viewBox="0 0 32 32">
<path stroke-linejoin="round" stroke-linecap="round" stroke-miterlimit="4" stroke-width="2.6667" d="M14.667 25.333c5.891 0 10.667-4.776 10.667-10.667s-4.776-10.667-10.667-10.667c-5.891 0-10.667 4.776-10.667 10.667s4.776 10.667 10.667 10.667z"></path>
<path stroke-linejoin="round" stroke-linecap="round" stroke-miterlimit="4" stroke-width="2.6667" d="M28.001 28l-5.8-5.8"></path>
</symbol>
<symbol id="icon-lock-02" viewBox="0 0 30 32">
<path fill="none" opacity="0.8" stroke="#fafafa" style="stroke: var(--color3, #fafafa)" stroke-linejoin="round" stroke-linecap="round" stroke-miterlimit="4" stroke-width="1.6842" d="M21.474 14.737v-3.789c0-3.488-2.828-6.316-6.316-6.316s-6.316 2.828-6.316 6.316v3.789M9.853 27.368h10.611c2.122 0 3.183 0 3.994-0.413 0.713-0.363 1.293-0.943 1.656-1.656 0.413-0.811 0.413-1.872 0.413-3.994v-0.505c0-2.122 0-3.183-0.413-3.994-0.363-0.713-0.943-1.293-1.656-1.656-0.811-0.413-1.872-0.413-3.994-0.413h-10.611c-2.122 0-3.183 0-3.994 0.413-0.713 0.363-1.293 0.943-1.656 1.656-0.413 0.811-0.413 1.872-0.413 3.994v0.505c0 2.122 0 3.183 0.413 3.994 0.363 0.713 0.943 1.293 1.656 1.656 0.811 0.413 1.872 0.413 3.994 0.413z"></path>
</symbol>
<symbol id="icon-mail-01" viewBox="0 0 30 32">
<path fill="none" opacity="0.8" stroke="#fafafa" style="stroke: var(--color3, #fafafa)" stroke-linejoin="round" stroke-linecap="round" stroke-miterlimit="4" stroke-width="1.6842" d="M2.526 9.684l10.314 7.22c0.835 0.585 1.253 0.877 1.707 0.99 0.401 0.1 0.821 0.1 1.222 0 0.454-0.113 0.872-0.406 1.707-0.99l10.314-7.22M8.589 26.105h13.137c2.122 0 3.183 0 3.994-0.413 0.713-0.363 1.293-0.943 1.656-1.656 0.413-0.811 0.413-1.872 0.413-3.994v-8.084c0-2.122 0-3.183-0.413-3.994-0.363-0.713-0.943-1.293-1.656-1.656-0.811-0.413-1.872-0.413-3.994-0.413h-13.137c-2.122 0-3.183 0-3.994 0.413-0.713 0.363-1.293 0.943-1.656 1.656-0.413 0.811-0.413 1.872-0.413 3.994v8.084c0 2.122 0 3.183 0.413 3.994 0.363 0.713 0.943 1.293 1.656 1.656 0.811 0.413 1.872 0.413 3.994 0.413z"></path>
</symbol>
<symbol id="icon-user-01" viewBox="0 0 30 32">
<path fill="none" opacity="0.8" stroke="#fafafa" style="stroke: var(--color3, #fafafa)" stroke-linejoin="round" stroke-linecap="round" stroke-miterlimit="4" stroke-width="1.6842" d="M25.263 27.368c0-1.763 0-2.644-0.218-3.362-0.49-1.615-1.753-2.878-3.368-3.368-0.717-0.218-1.599-0.218-3.362-0.218h-6.316c-1.763 0-2.644 0-3.361 0.218-1.615 0.49-2.878 1.753-3.368 3.368-0.218 0.717-0.218 1.599-0.218 3.362M20.842 10.316c0 3.139-2.545 5.684-5.684 5.684s-5.684-2.545-5.684-5.684 2.545-5.684 5.684-5.684c3.139 0 5.684 2.545 5.684 5.684z"></path>
</symbol>
<symbol id="icon-logoTablet" viewBox="0 0 32 32">
<path fill="#8baa36" style="fill: var(--color1, #8baa36)" d="M8.727 0h14.545c4.82 0 8.727 3.907 8.727 8.727v14.545c0 4.82-3.907 8.727-8.727 8.727h-14.545c-4.82 0-8.727-3.907-8.727-8.727v-14.545c0-4.82 3.907-8.727 8.727-8.727z"></path>
<path fill="none" stroke="#fafafa" style="stroke: var(--color3, #fafafa)" stroke-linejoin="round" stroke-linecap="round" stroke-miterlimit="4" stroke-width="1.4545" d="M7.273 7.347v3.966c0 1.132 0.494 2.135 1.26 2.784 0.375 0.317 0.622 0.746 0.622 1.221v6.62c0 0.736 0.633 1.333 1.412 1.333s1.412-0.597 1.412-1.333v-6.62c0-0.476 0.248-0.904 0.622-1.221 0.766-0.649 1.26-1.652 1.26-2.784v0"></path>
<path fill="none" stroke="#fafafa" style="stroke: var(--color3, #fafafa)" stroke-linejoin="round" stroke-linecap="round" stroke-miterlimit="4" stroke-width="1.4545" d="M10.567 11.717v-4.444"></path>
<path fill="none" stroke="#fafafa" style="stroke: var(--color3, #fafafa)" stroke-linejoin="round" stroke-linecap="round" stroke-miterlimit="4" stroke-width="1.4545" d="M23.273 8.208c0-0.491-0.422-0.889-0.941-0.889h-0.941c-1.559 0-2.823 1.194-2.823 2.667v5.333c0 1.159 0.788 2.136 1.882 2.503v4.117c0 0.736 0.633 1.333 1.412 1.333s1.412-0.597 1.412-1.333v-13.732z"></path>
</symbol>
<symbol id="icon-clock" viewBox="0 0 32 32">
<path stroke-linejoin="round" stroke-linecap="round" stroke-miterlimit="4" stroke-width="2.9714" d="M15.998 29.334c7.364 0 13.333-5.97 13.333-13.333s-5.97-13.333-13.333-13.333-13.333 5.97-13.333 13.333c0 7.364 5.97 13.333 13.333 13.333z"></path>
<path stroke-linejoin="round" stroke-linecap="round" stroke-miterlimit="4" stroke-width="2.9714" d="M16 8v8l5.333 2.667"></path>
</symbol>
<symbol id="icon-add" viewBox="0 0 32 32">
<path fill="none" stroke="#fafafa" style="stroke: var(--color1, #fafafa)" stroke-linejoin="round" stroke-linecap="round" stroke-miterlimit="4" stroke-width="0.5" d="M28.191 11.429v-4.581c0-0.807-0.32-1.58-0.889-2.152s-1.342-0.893-2.149-0.896l-4.581-0.014M28.191 20.571v4.571c0 0.808-0.321 1.583-0.893 2.155s-1.347 0.893-2.155 0.893h-4.571M11.429 3.787l-4.581 0.015c-0.807 0.002-1.58 0.325-2.149 0.896s-0.889 1.345-0.889 2.152v4.579M11.429 28.19h-4.571c-0.808 0-1.583-0.321-2.155-0.893s-0.893-1.347-0.893-2.155v-4.571"></path>
<path fill="#fafafa" style="fill: var(--color1, #fafafa)" d="M16 18.75c0.625 0 1.156-0.219 1.594-0.656s0.656-0.969 0.656-1.594-0.219-1.156-0.656-1.594c-0.438-0.437-0.969-0.656-1.594-0.656s-1.156 0.219-1.594 0.656c-0.437 0.438-0.656 0.969-0.656 1.594s0.219 1.156 0.656 1.594c0.438 0.437 0.969 0.656 1.594 0.656zM12 20.5c-0.275 0-0.51-0.098-0.706-0.294s-0.294-0.431-0.294-0.706v-6c0-0.275 0.098-0.51 0.294-0.706s0.431-0.294 0.706-0.294h1.575l0.925-1h3l0.925 1h1.575c0.275 0 0.511 0.098 0.706 0.294s0.294 0.431 0.294 0.706v6c0 0.275-0.098 0.511-0.294 0.706s-0.431 0.294-0.706 0.294h-8z"></path>
</symbol>
<symbol id="icon-arrow" viewBox="0 0 55 32">
<path fill="none" stroke="#8baa36" style="stroke: var(--color1, #8baa36)" stroke-linejoin="round" stroke-linecap="round" stroke-miterlimit="4" stroke-width="9.1429" d="M50.286 4.571l-22.857 22.857-22.857-22.857"></path>
</symbol>
<symbol id="icon-Minus" viewBox="0 0 32 32">
<path stroke-linejoin="round" stroke-linecap="round" stroke-miterlimit="4" stroke-width="3.4286" d="M5 16h22"></path>
</symbol>
<symbol id="icon-Plus" viewBox="0 0 32 32">
<path fill="none" stroke="#8baa36" style="stroke: var(--color-stroke-iconPlus, #8baa36)" stroke-linejoin="round" stroke-linecap="round" stroke-miterlimit="4" stroke-width="3.4286" d="M5 16h22"></path>
<path fill="none" stroke="#8baa36" style="stroke: var(--color-stroke-iconPlus, #8baa36)" stroke-linejoin="round" stroke-linecap="round" stroke-miterlimit="4" stroke-width="3.4286" d="M16 5v22"></path>
</symbol>
<symbol id="icon-X" viewBox="0 0 30 32">
<path stroke-linejoin="round" stroke-linecap="round" stroke-miterlimit="4" stroke-width="2.5263" d="M23.684 7.474l-17.053 17.053"></path>
<path stroke-linejoin="round" stroke-linecap="round" stroke-miterlimit="4" stroke-width="2.5263" d="M23.684 24.526l-17.053-17.053"></path>
</symbol>
<symbol id="icon-trash-01" viewBox="0 0 32 32">
<path fill="none"   stroke-linejoin="round" stroke-linecap="round" stroke-miterlimit="4" stroke-width="2.7429" d="M21.333 8v-1.067c0-1.493 0-2.24-0.291-2.811-0.256-0.502-0.664-0.91-1.165-1.165-0.57-0.291-1.317-0.291-2.811-0.291h-2.133c-1.493 0-2.24 0-2.811 0.291-0.502 0.256-0.91 0.664-1.165 1.165-0.291 0.57-0.291 1.317-0.291 2.811v1.067M13.333 15.333v6.667M18.667 15.333v6.667M4 8h24M25.333 8v14.933c0 2.24 0 3.36-0.436 4.216-0.384 0.753-0.995 1.365-1.748 1.748-0.856 0.436-1.976 0.436-4.216 0.436h-5.867c-2.24 0-3.36 0-4.216-0.436-0.753-0.384-1.365-0.995-1.748-1.748-0.436-0.856-0.436-1.976-0.436-4.216v-14.933"></path>
</symbol>
<symbol id="icon-Menu" viewBox="0 0 48 32">
<path fill="none" stroke="#fafafa" style="stroke: var(--color-Hamburger, #fafafa)" stroke-linejoin="round" stroke-linecap="round" stroke-miterlimit="4" stroke-width="4" d="M3 16h42M3 2h42M3 30h28"></path>
</symbol>
<symbol id="icon-CloseMenu" viewBox="0 0 32 32">
<path  stroke-linejoin="round" stroke-linecap="round" stroke-miterlimit="4" stroke-width="4"    d="M29.335 2.667l-26.667 26.667M2.668 2.667l26.667 26.667"></path>
</symbol>
<symbol id="icon-not-found" viewBox="0 0 49 32">
<path fill="#8baa36" style="fill: var(--color1, #8baa36)" d="M40.242 15.673c0 0 2.395 0.233 3.608 1.689 0 0 1.283-1.687 3.586-1.652 0.563-0.666 0.921-1.475 1.033-2.333s-0.027-1.73-0.4-2.514c-0.373-0.784-0.966-1.448-1.709-1.914s-1.605-0.716-2.487-0.72-1.747 0.238-2.494 0.697c-0.747 0.459-1.346 1.118-1.727 1.898s-0.528 1.651-0.424 2.51 0.455 1.671 1.011 2.343l0.001-0.004z"></path>
<path fill="#fafafa" style="fill: var(--color2, #fafafa)" opacity="0.5" d="M40.242 15.673c0 0 2.395 0.233 3.608 1.689 0 0 1.283-1.687 3.586-1.652 0.563-0.666 0.921-1.475 1.033-2.333s-0.027-1.73-0.4-2.514c-0.373-0.784-0.966-1.448-1.709-1.914s-1.605-0.716-2.487-0.72-1.747 0.238-2.494 0.697c-0.747 0.459-1.346 1.118-1.727 1.898s-0.528 1.651-0.424 2.51 0.455 1.671 1.011 2.343l0.001-0.004z"></path>
<path fill="#b8b8b8" style="fill: var(--color3, #b8b8b8)" d="M43.77 8.551l-0.080 15.226h0.404l-0.324-15.226z"></path>
<path fill="#b8b8b8" style="fill: var(--color3, #b8b8b8)" d="M43.891 16.918c0 0 0.808-1.428 2.263-1.865 0 0-1.536 0.358-2.299 1.587l0.036 0.278z"></path>
<path fill="#b8b8b8" style="fill: var(--color3, #b8b8b8)" d="M43.891 12.873c0 0 0.808-1.428 2.263-1.865 0 0-1.536 0.357-2.299 1.587l0.036 0.278z"></path>
<path fill="#b8b8b8" style="fill: var(--color3, #b8b8b8)" d="M43.891 14.894c0 0 0.808-1.428 2.263-1.865 0 0-1.536 0.358-2.299 1.587l0.036 0.278z"></path>
<path fill="#b8b8b8" style="fill: var(--color3, #b8b8b8)" d="M43.771 13.903c0 0-0.781-1.427-2.185-1.864 0 0 1.483 0.357 2.223 1.587l-0.039 0.277z"></path>
<path fill="#b8b8b8" style="fill: var(--color3, #b8b8b8)" d="M43.771 15.887c0 0-0.781-1.428-2.185-1.864 0 0 1.483 0.357 2.223 1.586l-0.039 0.278z"></path>
<path fill="#8baa36" style="fill: var(--color1, #8baa36)" d="M1.045 15.673c0 0 2.395 0.233 3.608 1.689 0 0 1.283-1.687 3.586-1.652 0.563-0.666 0.921-1.475 1.033-2.333s-0.026-1.73-0.4-2.514c-0.373-0.784-0.966-1.448-1.709-1.914s-1.605-0.716-2.487-0.72c-0.882-0.004-1.747 0.238-2.494 0.697s-1.346 1.118-1.727 1.898c-0.381 0.78-0.527 1.651-0.423 2.51s0.455 1.672 1.011 2.343l0.001-0.004z"></path>
<path fill="#fafafa" style="fill: var(--color2, #fafafa)" opacity="0.5" d="M1.045 15.673c0 0 2.395 0.233 3.608 1.689 0 0 1.283-1.687 3.586-1.652 0.563-0.666 0.921-1.475 1.033-2.333s-0.026-1.73-0.4-2.514c-0.373-0.784-0.966-1.448-1.709-1.914s-1.605-0.716-2.487-0.72c-0.882-0.004-1.747 0.238-2.494 0.697s-1.346 1.118-1.727 1.898c-0.381 0.78-0.527 1.651-0.423 2.51s0.455 1.672 1.011 2.343l0.001-0.004z"></path>
<path fill="#b8b8b8" style="fill: var(--color3, #b8b8b8)" d="M4.574 8.551l-0.082 15.226h0.404l-0.323-15.226z"></path>
<path fill="#b8b8b8" style="fill: var(--color3, #b8b8b8)" d="M4.697 16.918c0 0 0.808-1.428 2.263-1.865 0 0-1.536 0.358-2.299 1.587l0.036 0.278z"></path>
<path fill="#b8b8b8" style="fill: var(--color3, #b8b8b8)" d="M4.697 12.873c0 0 0.808-1.428 2.263-1.865 0 0-1.536 0.357-2.299 1.587l0.036 0.278z"></path>
<path fill="#b8b8b8" style="fill: var(--color3, #b8b8b8)" d="M4.697 14.894c0 0 0.808-1.428 2.263-1.865 0 0-1.536 0.358-2.299 1.587l0.036 0.278z"></path>
<path fill="#b8b8b8" style="fill: var(--color3, #b8b8b8)" d="M4.575 13.903c0 0-0.781-1.427-2.185-1.864 0 0 1.483 0.357 2.224 1.587l-0.039 0.277z"></path>
<path fill="#b8b8b8" style="fill: var(--color3, #b8b8b8)" d="M4.575 15.887c0 0-0.781-1.428-2.185-1.864 0 0 1.483 0.357 2.224 1.586l-0.039 0.278z"></path>
<path fill="#8baa36" style="fill: var(--color1, #8baa36)" d="M30.511 17.149c0 0 1.96 0.19 2.953 1.382 0 0 1.050-1.381 2.935-1.353 0.46-0.545 0.754-1.208 0.845-1.91s-0.022-1.416-0.328-2.057-0.791-1.184-1.399-1.566c-0.608-0.381-1.314-0.586-2.036-0.589s-1.429 0.195-2.041 0.571c-0.611 0.376-1.101 0.915-1.413 1.554s-0.431 1.351-0.346 2.054c0.085 0.703 0.372 1.368 0.828 1.917l0.001-0.003z"></path>
<path fill="#fafafa" style="fill: var(--color2, #fafafa)" opacity="0.5" d="M30.511 17.149c0 0 1.96 0.19 2.953 1.382 0 0 1.050-1.381 2.935-1.353 0.46-0.545 0.754-1.208 0.845-1.91s-0.022-1.416-0.328-2.057-0.791-1.184-1.399-1.566c-0.608-0.381-1.314-0.586-2.036-0.589s-1.429 0.195-2.041 0.571c-0.611 0.376-1.101 0.915-1.413 1.554s-0.431 1.351-0.346 2.054c0.085 0.703 0.372 1.368 0.828 1.917l0.001-0.003z"></path>
<path fill="#b8b8b8" style="fill: var(--color3, #b8b8b8)" d="M33.399 11.314l-0.066 12.462h0.331l-0.265-12.462z"></path>
<path fill="#b8b8b8" style="fill: var(--color3, #b8b8b8)" d="M33.499 18.163c0 0 0.663-1.169 1.853-1.526 0 0-1.254 0.292-1.881 1.299l0.028 0.228z"></path>
<path fill="#b8b8b8" style="fill: var(--color3, #b8b8b8)" d="M33.499 14.853c0 0 0.663-1.169 1.853-1.525 0 0-1.254 0.292-1.881 1.298l0.028 0.228z"></path>
<path fill="#b8b8b8" style="fill: var(--color3, #b8b8b8)" d="M33.499 16.508c0 0 0.663-1.169 1.853-1.526 0 0-1.254 0.292-1.881 1.299l0.028 0.228z"></path>
<path fill="#b8b8b8" style="fill: var(--color3, #b8b8b8)" d="M33.4 15.696c0 0-0.638-1.169-1.788-1.525 0 0 1.213 0.292 1.82 1.298l-0.032 0.228z"></path>
<path fill="#b8b8b8" style="fill: var(--color3, #b8b8b8)" d="M33.4 17.319c0 0-0.638-1.169-1.788-1.525 0 0 1.213 0.292 1.82 1.299l-0.032 0.227z"></path>
<path fill="#8baa36" style="fill: var(--color1, #8baa36)" d="M11.545 17.149c0 0 1.96 0.19 2.953 1.382 0 0 1.045-1.381 2.935-1.353 0.46-0.545 0.753-1.208 0.845-1.91s-0.022-1.416-0.328-2.057c-0.306-0.641-0.791-1.184-1.399-1.566s-1.314-0.586-2.036-0.589c-0.722-0.003-1.429 0.195-2.041 0.571s-1.101 0.915-1.413 1.554c-0.311 0.639-0.431 1.351-0.346 2.054s0.372 1.368 0.828 1.917l0.001-0.003z"></path>
<path fill="#fafafa" style="fill: var(--color2, #fafafa)" opacity="0.5" d="M11.545 17.149c0 0 1.96 0.19 2.953 1.382 0 0 1.045-1.381 2.935-1.353 0.46-0.545 0.753-1.208 0.845-1.91s-0.022-1.416-0.328-2.057c-0.306-0.641-0.791-1.184-1.399-1.566s-1.314-0.586-2.036-0.589c-0.722-0.003-1.429 0.195-2.041 0.571s-1.101 0.915-1.413 1.554c-0.311 0.639-0.431 1.351-0.346 2.054s0.372 1.368 0.828 1.917l0.001-0.003z"></path>
<path fill="#b8b8b8" style="fill: var(--color3, #b8b8b8)" d="M14.434 11.314l-0.066 12.463h0.331l-0.265-12.463z"></path>
<path fill="#b8b8b8" style="fill: var(--color3, #b8b8b8)" d="M14.538 18.164c0 0 0.662-1.169 1.853-1.526 0 0-1.254 0.292-1.881 1.299l0.028 0.228z"></path>
<path fill="#b8b8b8" style="fill: var(--color3, #b8b8b8)" d="M14.538 14.853c0 0 0.662-1.169 1.853-1.525 0 0-1.254 0.292-1.881 1.298l0.028 0.228z"></path>
<path fill="#b8b8b8" style="fill: var(--color3, #b8b8b8)" d="M14.538 16.508c0 0 0.662-1.169 1.853-1.526 0 0-1.254 0.292-1.881 1.299l0.028 0.228z"></path>
<path fill="#b8b8b8" style="fill: var(--color3, #b8b8b8)" d="M14.434 15.696c0 0-0.637-1.169-1.787-1.52 0 0 1.213 0.292 1.82 1.298l-0.033 0.222z"></path>
<path fill="#b8b8b8" style="fill: var(--color3, #b8b8b8)" d="M14.434 17.319c0 0-0.638-1.169-1.788-1.525 0 0 1.213 0.292 1.82 1.299l-0.032 0.227z"></path>
<path fill="#000" style="fill: var(--color4, #000)" opacity="0.3" d="M14.078 28.778c0 0.308-1.926 0.552-4.303 0.552s-4.303-0.247-4.303-0.552c0-0.305 1.927-0.552 4.303-0.552s4.303 0.248 4.303 0.552z"></path>
<path fill="#000" style="fill: var(--color4, #000)" opacity="0.3" d="M23.086 28.778c0 0.307-1.927 0.552-4.303 0.552s-4.303-0.247-4.303-0.552 1.927-0.552 4.303-0.552c2.376 0 4.303 0.248 4.303 0.552z"></path>
<path fill="#000" style="fill: var(--color4, #000)" opacity="0.3" d="M35.019 28.778c0 0.307-1.926 0.552-4.302 0.552s-4.303-0.247-4.303-0.552 1.926-0.552 4.303-0.552c2.377 0 4.302 0.248 4.302 0.552z"></path>
<path fill="#000" style="fill: var(--color4, #000)" opacity="0.3" d="M44.987 28.778c0 0.307-1.927 0.552-4.303 0.552s-4.307-0.247-4.307-0.552 1.927-0.552 4.303-0.552c2.376 0 4.307 0.248 4.307 0.552z"></path>
<path fill="#fafafa" style="fill: var(--color2, #fafafa)" d="M31.182 12.615c0 0-0.177 0.718-0.177 0.838 0 0.075-0.008 0.149-0.025 0.222 0 0-0.377 0.444-0.327 0.567 0.061 0.096 0.148 0.172 0.252 0.221 0 0 0.201 0.718 0.402 0.765 0.207 0.038 0.417 0.063 0.627 0.074l0.075 0.591 1.005-0.148-0.251-0.888 0.104-0.765c0 0 0.176-0.32 0-0.837s-0.553-0.542-0.805-0.542c-0.296-0.018-0.59-0.052-0.882-0.099z"></path>
<path fill="#22252a" style="fill: var(--color5, #22252a)" d="M31.634 12.246c0 0-0.88-0.026-0.855 0.197s0.93 0.513 0.93 0.513-0.302 0.197-0.152 0.395c0.15 0.198 0.503 0.37 0.503 0.37s-0.104 0.419 0.051 0.444c0.156 0.025 0.251-0.198 0.276-0.272s0.302-0.049 0.377 0.148c0.043 0.102 0.068 0.211 0.075 0.321 0 0 0.302-0.888 0.352-1.282s-1.080-0.832-1.558-0.832z"></path>
<path fill="#fafafa" style="fill: var(--color2, #fafafa)" d="M32.191 14.176c0 0 0.304-0.656 0.486-0.333s0.104 0.659-0.074 0.695c-0.179 0.036-0.328 0.071-0.328 0.071z"></path>
<path fill="#22252a" style="fill: var(--color5, #22252a)" d="M30.955 21.022c-0.049 0.056-0.855 1.751-0.955 2.318s-0.753 3.945-0.779 4.093-1.407 0.444-1.508 0.469c-0.101 0.024 0.104 0.296 0.402 0.37s1.157 0.419 1.358 0.222c0.202-0.198 0.478-1.307 0.553-1.43s1.49-3.393 1.49-3.393c0 0 0.725-1.569 0.876-1.718s-0.179-0.806-0.305-1.003c-0.127-0.198-0.78-0.321-1.132 0.074z"></path>
<path fill="#22252a" style="fill: var(--color5, #22252a)" d="M30.805 21.044c0 0 0.352 1.653 0.528 2.244 0.164 0.497 0.411 0.963 0.731 1.381 0.202 0.272 1.182 2.665 1.182 2.665l0.15 0.37c0 0-0.050 0.148-0.326 0.344s-1.056 0.518-0.855 0.592c0.202 0.075 1.005 0.074 1.383 0.049 0.325-0.023 0.629-0.163 0.854-0.395 0.152-0.173-0.251-0.666-0.251-0.765s-0.88-3.106-0.93-3.255c-0.050-0.149-0.302-1.208-0.302-1.208v-1.204c0 0 0.126-0.221 0.126-0.718s-0.377-0.593-0.377-0.593l-2.062 0.198 0.149 0.292z"></path>
<path fill="#8baa36" style="fill: var(--color1, #8baa36)" d="M30.629 20.899c0 0 0.051 0.419 0.202 0.444s1.708 0.444 2.388-0.049c0 0 0.125-0.37 0.050-0.468s-0.252-0.049-1.156-0.049c-0.904 0-1.484 0-1.484 0.123z"></path>
<path fill="#8baa36" style="fill: var(--color1, #8baa36)" d="M32.94 15.376c0 0-0.93 0.123-1.332 0.513s-0.753 1.11-0.929 1.775c-0.175 0.665-0.302 3.107-0.051 3.23s2.363 0.247 2.717 0.102-0.025-1.307-0.025-1.751c0-0.444 0.402-1.948 0.327-2.785s-0.706-1.085-0.706-1.085z"></path>
<path fill="#22252a" style="fill: var(--color5, #22252a)" d="M29.585 17.939c-0.011-1.015-0.434-1.881-0.995-2.255v-0.205l-1.546 0.015c-0.87 0.009-1.567 1.128-1.55 2.491s0.731 2.467 1.603 2.46l1.546-0.015v-0.205c0.543-0.397 0.947-1.271 0.942-2.286z"></path>
<path fill="#fafafa" style="fill: var(--color2, #fafafa)" d="M30.279 17.932c-0.011-1.066-0.43-1.976-1.020-2.372v-0.218l-0.663 0.007c-0.915 0.009-1.643 1.181-1.628 2.617s0.769 2.592 1.684 2.583l0.663-0.007v-0.217c0.576-0.408 0.975-1.331 0.963-2.392z"></path>
<path fill="#737373" style="fill: var(--color6, #737373)" d="M30.943 17.925c0.016 1.435-0.714 2.608-1.628 2.617s-1.672-1.147-1.684-2.582c-0.013-1.435 0.714-2.608 1.628-2.618s1.667 1.147 1.684 2.583z"></path>
<path fill="#22252a" style="fill: var(--color5, #22252a)" d="M30.563 17.881c0.007 0.68-0.338 1.235-0.772 1.24s-0.791-0.544-0.798-1.23 0.339-1.23 0.772-1.24c0.434-0.010 0.791 0.549 0.798 1.23z"></path>
<path fill="#22252a" style="fill: var(--color5, #22252a)" d="M42.877 22.991c0.086-0.632 0.123-1.269 0.11-1.907-0.34 0.154-2.321 0.21-2.503 0.214s-2.163-0.060-2.502-0.214c-0.015 0.637 0.020 1.275 0.104 1.907 0.137 0.831 1.341 4.16 1.368 4.321 0.035 0.155 0.081 0.308 0.137 0.457 0 0-0.684 0.483-0.985 0.67s-0.081 0.269 0.219 0.269c0.301 0 0.93-0.081 1.121-0.081 0.169 0 0.464-0.145 0.533-0.179 0.069 0.035 0.364 0.179 0.532 0.179 0.192 0 0.821 0.081 1.122 0.081s0.523-0.081 0.219-0.269c-0.303-0.187-0.985-0.67-0.985-0.67 0.056-0.149 0.102-0.302 0.137-0.457 0.032-0.164 1.236-3.492 1.373-4.321z"></path>
<path fill="#8baa36" style="fill: var(--color1, #8baa36)" d="M40.070 15.866c0 0-1.058 0.339-1.605 0.68s-1.095 2.183-1.095 2.255c-0.031 0.128-0.074 0.254-0.127 0.375 0 0-0.548-0.125-0.656 0.322s0.546 1.020 0.893 1.038 0.456-0.089 0.456-0.089c0 0-0.218 0.43-0.127 0.608s0.858 0.842 2.372 0.82c1.514-0.022 2.612-0.269 2.772-0.483s0.183-0.662 0.183-0.662 0.565-0.143 0.766-0.501c0.201-0.358 0.164-0.734 0.054-1.109s-0.675-1.465-1.057-2.074-1.186-0.948-1.567-1.056c-0.382-0.108-1.005-0.124-1.26-0.124z"></path>
<path fill="#fafafa" style="fill: var(--color2, #fafafa)" d="M40.391 17.373c0.152-0.049 0.627-0.463 0.81-0.877 0.072-0.159 0.123-0.326 0.152-0.497l-0.024-0.007c-0.383-0.108-1.003-0.125-1.254-0.125 0 0-0.222 0.071-0.514 0.18 0.002 0.222 0.044 0.441 0.125 0.648 0.165 0.414 0.558 0.729 0.705 0.679z"></path>
<path fill="#8baa36" style="fill: var(--color1, #8baa36)" d="M39.95 28.629c0.169 0 0.464-0.145 0.533-0.179 0.069 0.035 0.364 0.179 0.532 0.179 0.192 0 0.821 0.081 1.122 0.081s0.522-0.081 0.219-0.268c-0.262-0.163-0.812-0.549-0.952-0.647-0.323 0.289-0.961 0.217-0.961 0.217-0.129-0.019-0.257-0.046-0.383-0.080-0.191-0.054-0.465-0.161-0.465-0.161s-0.684 0.483-0.985 0.671c-0.301 0.187-0.081 0.268 0.219 0.268s0.93-0.081 1.121-0.081z"></path>
<path fill="#22252a" style="fill: var(--color5, #22252a)" d="M39.023 13.181c0 0-0.568 0.334-0.484 0.627s0.342 0.35 0.285 0.513c-0.056 0.163-0.254 0.265-0.029 0.368 0.128 0.056 0.262 0.098 0.399 0.126 0 0 0.209 0.711 0.568 0.836s0.982 0.042 1.423-0.013c0.149-0.014 0.29-0.073 0.404-0.168s0.196-0.222 0.235-0.363c0.043-0.153-0.185 0.029-0.299-0.139s0.057-0.6 0.185-0.977-0.256-1.089-0.753-1.325c-0.498-0.237-1.447-0.113-1.935 0.516z"></path>
<path fill="#fafafa" style="fill: var(--color2, #fafafa)" d="M39.979 15.611c-0.072 0.234-0.121 0.474-0.146 0.718-0.019 0.308 0.237 0.645 0.511 0.626s0.51-0.555 0.546-0.82c0.037-0.265-0.091-0.984-0.091-0.984s-0.418 0.018-0.584 0.161c-0.097 0.084-0.178 0.186-0.236 0.299z"></path>
<path fill="#fafafa" style="fill: var(--color2, #fafafa)" d="M39.608 13.571c0 0 0.014 0.418 0.441 0.82 0.257 0.244 0.562 0.434 0.895 0.559-0.007 0.092-0.031 0.181-0.071 0.264-0.019 0.035-0.048 0.063-0.083 0.082s-0.076 0.026-0.116 0.021h-0.143c0 0-0.209 0.481-0.462 0.55s-0.875 0.021-0.96-0.592c-0.086-0.614-0.099-1.116-0.028-1.242s0.527-0.461 0.527-0.461z"></path>
<path fill="#fafafa" style="fill: var(--color2, #fafafa)" d="M44.078 18.973c0.065-0.128 0.104-0.267 0.116-0.41 0-0.187-0.353-0.454-0.418-0.521s-0.13-0.059-0.143 0.034c-0 0.052 0.011 0.104 0.032 0.152s0.052 0.092 0.091 0.128c0.053 0.041 0.091 0.097 0.11 0.161 0.006 0.046-0.117 0.273-0.055 0.419s0.235 0.191 0.269 0.037z"></path>
<path fill="none" stroke="#22252a" style="stroke: var(--color5, #22252a)" stroke-linejoin="round" stroke-linecap="round" stroke-miterlimit="4" stroke-width="0.5915" d="M29.928 17.927c0 0 1.538 0.483 2.463 1.61s1.532 0.965 2.681 0.59 1.587-1.718 3.174-0.59c1.587 1.128 1.915 1.556 3.229 0.912s2.024-2.201 3.229-1.665c1.205 0.536 0.656 3.28 0.766 4.613s-0.055 4.671 0.218 5.101c0.274 0.429 3.065 0.102 3.065 0.102"></path>
<path fill="#8baa36" style="fill: var(--color1, #8baa36)" d="M32.809 16.135c0 0-0.306-0.49-0.758-0.362-0.478 0.135-0.724 0.805-0.836 1.222s-0.187 0.868-0.392 1.257c0 0-0.905-0.015-1.41-0.159-0.385-0.118-0.764-0.255-1.135-0.41 0 0-0.179-0.245-0.305-0.293s-0.455-0.142-0.479-0.069c-0.024 0.074 0.38 0.317 0.38 0.317s-0.752 0.102-0.827 0.181c-0.075 0.079 0.532 0.315 0.532 0.315s0.227 0.072 0.779-0.057c0 0 2.024 1.261 2.427 1.405s0.627 0.191 0.902-0.33c0.275-0.521 1.187-1.812 1.332-2.332z"></path>
<path fill="#fafafa" style="fill: var(--color2, #fafafa)" d="M28.805 17.892c-0.296-0.109-0.523-0.205-0.523-0.205s-0.179-0.245-0.305-0.293c-0.126-0.048-0.454-0.142-0.479-0.069s0.38 0.317 0.38 0.317c0 0-0.752 0.102-0.828 0.181s0.532 0.315 0.532 0.315c0 0 0.227 0.072 0.778-0.057l0.283 0.175 0.16-0.364z"></path>
<path fill="#fafafa" style="fill: var(--color2, #fafafa)" d="M36.605 19.162c-0.065-0.128-0.104-0.267-0.116-0.41 0-0.187 0.354-0.453 0.418-0.52s0.129-0.059 0.142 0.034c0 0.052-0.011 0.104-0.032 0.152s-0.052 0.092-0.091 0.128c-0.053 0.041-0.091 0.097-0.11 0.161-0.006 0.045 0.117 0.273 0.055 0.419s-0.234 0.189-0.267 0.036z"></path>
<path fill="#fafafa" style="fill: var(--color2, #fafafa)" d="M36.849 18.599c0 0-0.291 0.528-0.122 0.718s0.333-0.427 0.365-0.597c0.031-0.17-0.135-0.341-0.242-0.121z"></path>
<path fill="#fafafa" style="fill: var(--color2, #fafafa)" d="M37.089 18.789c0 0-0.292 0.528-0.122 0.718s0.333-0.426 0.365-0.597c0.031-0.17-0.135-0.348-0.242-0.121z"></path>
<path fill="#fafafa" style="fill: var(--color2, #fafafa)" d="M37.354 18.833c0 0-0.292 0.528-0.122 0.718s0.333-0.426 0.365-0.597c0.031-0.17-0.135-0.342-0.242-0.121z"></path>
<path fill="#fafafa" style="fill: var(--color2, #fafafa)" d="M37.692 18.837c0 0-0.272 0.41-0.123 0.565s0.308-0.332 0.34-0.472c0.031-0.14-0.116-0.277-0.216-0.092z"></path>
<path fill="#fafafa" style="fill: var(--color2, #fafafa)" d="M43.885 18.62c0 0 0.292 0.528 0.122 0.718s-0.333-0.427-0.365-0.598c-0.031-0.17 0.135-0.341 0.242-0.12z"></path>
<path fill="#fafafa" style="fill: var(--color2, #fafafa)" d="M43.644 18.804c0 0 0.292 0.528 0.122 0.718s-0.333-0.427-0.365-0.598c-0.031-0.17 0.135-0.34 0.242-0.12z"></path>
<path fill="#fafafa" style="fill: var(--color2, #fafafa)" d="M43.378 18.853c0 0 0.292 0.528 0.122 0.718s-0.333-0.426-0.364-0.598c-0.030-0.171 0.137-0.341 0.241-0.12z"></path>
<path fill="#fafafa" style="fill: var(--color2, #fafafa)" d="M43.041 18.857c0 0 0.272 0.415 0.123 0.565s-0.308-0.332-0.338-0.472c-0.030-0.14 0.115-0.277 0.215-0.092z"></path>
<path fill="#fafafa" style="fill: var(--color2, #fafafa)" d="M7.091 24.698v0.582c-0.206 0.221-0.354 0.488-0.432 0.777-0.126 0.476-0.522 2.523-0.418 2.576s1.088 0.274 1.401 0.228c0.359-0.053 0.666-0.035 0.485-0.23s-1.131-0.739-1.131-0.739 1.045-1.482 1.277-2.030c0.232-0.547 0.27-1.394 0.27-1.394l-1.402-0.052-0.050 0.282z"></path>
<path fill="#22252a" style="fill: var(--color5, #22252a)" d="M7.643 28.861c0.359-0.053 0.666-0.035 0.485-0.23s-1.131-0.739-1.131-0.739l-0.036 0.211-0.684-0.082c-0.050 0.342-0.072 0.593-0.036 0.615 0.112 0.049 1.088 0.271 1.401 0.225z"></path>
<path fill="#fafafa" style="fill: var(--color2, #fafafa)" d="M10.526 25l0.162 0.283c-0.067 0.127-0.107 0.266-0.116 0.409s0.012 0.286 0.062 0.42c0.162 0.494 0.54 2.312 0.54 2.417s0.233 0.176 0.418 0.176c0.185 0 0.697 0.035 0.769 0.035s0.594 0.088 0.773-0.017c0.18-0.106-0.229-0.318-0.498-0.441s-0.863-0.441-0.863-0.441 0.143-1.447 0.143-2.083c0-0.635 0.144-0.847-0.053-1.235s-1.439 0.177-1.439 0.177l0.102 0.299z"></path>
<path fill="#22252a" style="fill: var(--color5, #22252a)" d="M12.63 28.282c-0.27-0.124-0.863-0.441-0.863-0.441l-0.072 0.264-0.578 0.102c0.034 0.176 0.056 0.297 0.056 0.322 0 0.103 0.233 0.176 0.418 0.176s0.697 0.035 0.769 0.035c0.072 0 0.594 0.088 0.773-0.017s-0.234-0.319-0.504-0.442z"></path>
<path fill="#fafafa" style="fill: var(--color2, #fafafa)" d="M9.557 13.254c-0.141-0.236-0.302-0.461-0.482-0.67-0.248-0.274-1.024-0.258-1.365 0.102s-0.233 1.005-0.104 1.187c0.129 0.182 0.388 1.035 0.388 1.035l0.062 0.609 1.443 0.502-0.295-0.989c0 0 0.559-0.102 0.605-0.274s-0.093-0.746-0.093-0.746c0 0 0.186-0.122 0.17-0.229s-0.329-0.528-0.329-0.528z"></path>
<path fill="#22252a" style="fill: var(--color5, #22252a)" d="M7.897 13.91c0 0 0.247 0.205 0.381-0.030s0.237-0.464 0.237-0.663c0-0.199-0.507-0.364-0.169-0.497s0.581 0.163 0.731-0.134c0.15-0.297 0.014-0.329-0.797-0.329s-1.216 0.398-1.045 0.895c0.137 0.367 0.307 0.722 0.507 1.060l0.155-0.301z"></path>
<path fill="#fafafa" style="fill: var(--color2, #fafafa)" d="M8.165 14.107c0 0-0.186-0.38-0.372-0.307s-0.093 0.67 0.093 0.731c0.063 0.014 0.127 0.013 0.189-0.003s0.119-0.046 0.167-0.088c0 0 0.156 0.32 0.342 0.41z"></path>
<path fill="#8baa36" style="fill: var(--color1, #8baa36)" d="M6.944 20.941l-0.116 1.458-0.347 2.158c0 0 0.811 0.624 1.567 0.624s0.964-0.094 0.964-0.094l0.424-2.214 0.424 2.328c0 0 0.836-0.132 1.39-0.266 0.385-0.105 0.75-0.271 1.080-0.492l-1.119-2.858-0.242-1.474c0 0-1.254 0.114-2.007 0.152s-1.755-0.152-1.755-0.152l-0.263 0.83z"></path>
<path fill="#22252a" style="fill: var(--color5, #22252a)" d="M7.74 15.117c0 0 1.776 0.608 2.325 1.198 0.303 0.328 0.643 2.573 0.765 3.121s0.335 1.64 0.335 1.64-1.084 0.48-1.922 0.497c-0.838 0.017-2.446-0.36-2.446-0.36s0.191-2.432 0.191-3.563c0-1.131 0.018-1.869 0.209-2.228 0.001 0.003 0.316-0.34 0.542-0.305z"></path>
<path fill="#22252a" style="fill: var(--color5, #22252a)" d="M16.896 14.381c0 0-0.153 0.111-0.684 0.492s-0.113 0.957-0.113 0.957c0 0-0.38 0.058-0.888 0.582s0.227 1.423 0.913 1.563c0.686 0.14 1.489-0.693 1.729-1.466s-0.077-1.938-0.237-2.179c-0.16-0.241-0.72 0.050-0.72 0.050z"></path>
<path fill="#22252a" style="fill: var(--color5, #22252a)" d="M18.909 14.279c0 0 0.264-0.401 0.025-0.982s-0.954-0.847-1.65-0.425c-0.232 0.135-0.412 0.342-0.512 0.588s-0.114 0.517-0.041 0.772c0.068 0.269 0.411 0.682 0.483 0.688s0.698 0.23 1.125 0.034c0.427-0.196 0.569-0.675 0.569-0.675z"></path>
<path fill="#737373" style="fill: var(--color6, #737373)" d="M15.835 27.809c0 0 0.496 0.757 1.358 0.887s0.087-0.629-0.059-0.744c-0.145-0.115-1.183-0.363-1.3-0.142z"></path>
<path fill="#737373" style="fill: var(--color6, #737373)" d="M20.427 28.004c0 0 0.948 0.229 0.875 0.43s-0.845 0.186-1.297 0.071-0.876-0.286-0.817-0.472c0.059-0.186 1.239-0.029 1.239-0.029z"></path>
<path fill="#8baa36" style="fill: var(--color1, #8baa36)" d="M17.733 15.785c0 0-1.269 0.182-1.5 0.622s0.095 2.835 0.095 2.835c0 0-0.541 1.172-0.549 1.926s0.335 2.082 0.308 2.413c-0.027 0.331-0.374 4.1-0.374 4.203s0.731 0.332 1.786 0.455c1.054 0.123 3.071-0.245 3.071-0.245s-0.040-2.224 0.066-3.551c0.105-1.326-0.045-2.519-0.314-3.014s-1.519-2.278-1.519-2.278 0.606-1.078 0.644-1.55c0.037-0.471-0.158-0.718-0.616-1.26-0.136-0.16-0.303-0.292-0.492-0.387s-0.395-0.154-0.606-0.17z"></path>
<path fill="#737373" style="fill: var(--color6, #737373)" d="M18.805 19.154c0 0 0.606-1.078 0.644-1.55s-0.158-0.718-0.615-1.26c-0.022-0.027-0.045-0.050-0.068-0.075l-0.017 0.015c-0.47 0.753-2.025 2.041-2.488 2.416 0.036 0.321 0.066 0.542 0.066 0.542s-0.541 1.172-0.549 1.926c0.009 0.344 0.044 0.686 0.104 1.025 1.098-0.615 2.567-1.766 3.363-2.408-0.249-0.361-0.44-0.632-0.44-0.632z"></path>
<path fill="#fafafa" style="fill: var(--color2, #fafafa)" d="M17.499 14.906c0.035 0.281 0.054 0.564 0.057 0.848-0.017 0.21 0.052 0.69 0.418 0.841s0.596-0.059 0.595-0.271c-0.013-0.174-0.048-0.347-0.105-0.513l0.010-0.579c0 0-0.631-0.387-0.976-0.326z"></path>
<path fill="#fafafa" style="fill: var(--color2, #fafafa)" d="M17.171 14.53c0 0-0.269-0.232-0.277 0.102s0.305 0.445 0.374 0.467c0.058 0.008 0.117-0.007 0.165-0.040 0 0 0.487 0.41 0.878 0.437s0.55-0.151 0.642-0.847c0.092-0.696-0.641-1.402-0.641-1.402s-0.627 1.134-1.141 1.282z"></path>
<path fill="#fafafa" style="fill: var(--color2, #fafafa)" d="M11.195 21.062c-0.004-0.119 0.016-0.237 0.059-0.349 0.065-0.139 0.418-0.219 0.496-0.246s0.118 0 0.095 0.073c-0.018 0.039-0.044 0.074-0.077 0.103s-0.071 0.051-0.112 0.065c-0.054 0.013-0.103 0.042-0.139 0.083-0.020 0.033-0.007 0.243-0.104 0.332s-0.25 0.065-0.217-0.061z"></path>
<path fill="none" stroke="#22252a" style="stroke: var(--color5, #22252a)" stroke-linejoin="round" stroke-linecap="round" stroke-miterlimit="4" stroke-width="0.5915" d="M19.202 17.98c0 0-1.254-0.161-1.807 0.698s-1.586 3.864-3.501 4.348c-1.915 0.484-2.463-3.383-3.612-3.275-1.095 0.102-1.86 0-2.517 1.181-0.351 0.632-2.107 7.538-2.936 7.609-2.643 0.227-4.344 0.079-4.344 0.079"></path>
<path fill="#22252a" style="fill: var(--color5, #22252a)" d="M7.822 15.166c0 0-0.289-0.114-0.676 0.113s-1.427 2.707-1.35 2.973c0.077 0.265 1.177 0.757 1.794 0.928s1.737 0.379 1.737 0.379c0 0 0.347 0.53 0.463 0.549 0.169-0.002 0.337-0.021 0.502-0.056 0 0 0.209 0.17 0.289-0.019s-0.077-0.435-0.251-0.624c-0.173-0.19-0.907-0.284-0.907-0.284l-1.988-1.345 0.836-1.514z"></path>
<path fill="#fafafa" style="fill: var(--color2, #fafafa)" d="M9.789 20.106c0.169-0.002 0.337-0.021 0.502-0.056 0 0 0.209 0.17 0.289-0.020s-0.077-0.435-0.251-0.624c-0.173-0.19-0.907-0.284-0.907-0.284l-1.988-1.344 0.297-0.542c-0.743-0.454-1.236-0.42-1.503-0.329-0.266 0.627-0.469 1.222-0.434 1.344 0.077 0.265 1.177 0.758 1.794 0.928s1.737 0.379 1.737 0.379c0 0 0.348 0.53 0.464 0.548z"></path>
<path fill="#22252a" style="fill: var(--color5, #22252a)" d="M22.217 18.022c-0.085-0.895-0.522-1.63-1.045-1.922l-0.017-0.182-1.365 0.124c-0.768 0.070-1.298 1.104-1.184 2.309s0.829 2.125 1.597 2.050l1.365-0.124-0.018-0.182c0.46-0.377 0.751-1.178 0.667-2.073z"></path>
<path fill="#fafafa" style="fill: var(--color2, #fafafa)" d="M22.835 17.969c-0.089-0.94-0.523-1.714-1.075-2.021l-0.019-0.192-0.584 0.053c-0.807 0.074-1.364 1.159-1.245 2.426s0.872 2.234 1.678 2.16l0.584-0.053-0.018-0.192c0.483-0.404 0.767-1.244 0.678-2.181z"></path>
<path fill="#fafafa" style="fill: var(--color2, #fafafa)" d="M23.42 17.912c0.12 1.267-0.437 2.353-1.244 2.426s-1.559-0.894-1.681-2.16c-0.122-1.266 0.437-2.358 1.243-2.426s1.561 0.894 1.682 2.16z"></path>
<path fill="#737373" style="fill: var(--color6, #737373)" d="M24.047 17.172l-2.266 0.205c-0.032 0.003-0.064-0-0.094-0.009s-0.059-0.024-0.083-0.044c-0.025-0.020-0.045-0.045-0.060-0.072s-0.024-0.058-0.027-0.089c-0.003-0.031 0-0.063 0.010-0.093s0.025-0.058 0.045-0.082c0.020-0.024 0.045-0.044 0.074-0.059s0.059-0.024 0.091-0.026l2.267-0.205c0.032-0.003 0.064 0 0.094 0.009s0.059 0.024 0.083 0.044c0.024 0.020 0.045 0.045 0.060 0.072s0.024 0.058 0.027 0.089c0.003 0.031-0 0.063-0.010 0.093s-0.025 0.058-0.045 0.082c-0.020 0.024-0.045 0.044-0.074 0.059s-0.059 0.024-0.091 0.026z"></path>
<path fill="#737373" style="fill: var(--color6, #737373)" d="M24.215 18.934l-2.266 0.205c-0.032 0.003-0.064-0-0.095-0.010s-0.059-0.024-0.083-0.044c-0.024-0.020-0.045-0.045-0.060-0.072s-0.024-0.058-0.027-0.089c-0.003-0.031 0-0.063 0.010-0.093s0.025-0.058 0.045-0.082c0.021-0.024 0.046-0.044 0.074-0.059s0.059-0.024 0.091-0.026l2.266-0.205c0.064-0.005 0.128 0.014 0.177 0.054s0.081 0.098 0.087 0.161c0.003 0.031-0 0.063-0.010 0.093s-0.025 0.058-0.045 0.082c-0.020 0.024-0.045 0.044-0.074 0.059s-0.059 0.024-0.091 0.026z"></path>
<path fill="#8baa36" style="fill: var(--color1, #8baa36)" d="M16.949 15.953c0 0-0.545 0.102-0.804 0.41s-0.788 2.68-0.666 2.953c0.122 0.273 2.081 0.615 2.686 0.664 0.486 0.019 0.974-0.002 1.457-0.063 0 0 0.523-0.013 0.666-0.037s0.407-0.162 0.411-0.214c0.004-0.052-0.022-0.177-0.217-0.193s-0.614-0.153-0.668-0.157c0.126-0.033 0.253-0.058 0.381-0.076 0 0 0.027-0.103-0.188-0.103s-0.411-0.014-0.492 0.103c-0.058 0.091-0.108 0.187-0.149 0.287 0 0-1.207 0.083-1.862-0.231s-0.862-0.418-0.862-0.418l0.47-1.845z"></path>
<path fill="#fafafa" style="fill: var(--color2, #fafafa)" d="M20.286 19.883c0.145-0.024 0.406-0.162 0.411-0.214s-0.022-0.177-0.217-0.193-0.614-0.153-0.668-0.157c0.126-0.032 0.253-0.058 0.381-0.076 0 0 0.027-0.103-0.188-0.103s-0.411-0.014-0.492 0.103c-0.058 0.091-0.108 0.187-0.148 0.287 0 0-1.207 0.083-1.862-0.231s-0.862-0.418-0.862-0.418l0.286-1.128c-0.373-0.15-0.766-0.246-1.167-0.284-0.195 0.773-0.355 1.683-0.282 1.845 0.121 0.273 2.081 0.615 2.686 0.664 0.486 0.019 0.974-0.002 1.457-0.064 0 0 0.523-0.009 0.666-0.033z"></path>
<path fill="#fafafa" style="fill: var(--color2, #fafafa)" d="M11.46 20.863c0 0-0.403 0.296-0.342 0.492s0.398-0.205 0.482-0.323c0.084-0.118 0.018-0.296-0.14-0.169z"></path>
<path fill="#fafafa" style="fill: var(--color2, #fafafa)" d="M11.539 21.129c0 0-0.402 0.296-0.342 0.492s0.399-0.205 0.482-0.323c0.083-0.118 0.018-0.298-0.14-0.169z"></path>
<path fill="#fafafa" style="fill: var(--color2, #fafafa)" d="M11.731 21.301c0 0-0.402 0.296-0.341 0.492s0.398-0.205 0.482-0.323c0.084-0.118 0.018-0.298-0.141-0.169z"></path>
<path fill="#fafafa" style="fill: var(--color2, #fafafa)" d="M11.888 21.441c0 0-0.348 0.219-0.289 0.381s0.346-0.145 0.418-0.239 0.014-0.246-0.129-0.142z"></path>
</symbol>
</defs>
</svg>
