<svg aria-hidden="true" style="position: absolute; width: 0; height: 0; overflow: hidden;" version="1.1" xmlns="http://www.w3.org/2000/svg" xmlns:xlink="http://www.w3.org/1999/xlink">
<defs>
<symbol id="icon-lock-02" viewBox="0 0 30 32">
<path fill="none" opacity="0.8" stroke="#fafafa" style="stroke: var(--color1, #fafafa)" stroke-linejoin="round" stroke-linecap="round" stroke-miterlimit="4" stroke-width="1.6842" d="M21.474 14.737v-3.789c0-3.488-2.828-6.316-6.316-6.316s-6.316 2.828-6.316 6.316v3.789M9.853 27.368h10.611c2.122 0 3.183 0 3.994-0.413 0.713-0.363 1.293-0.943 1.656-1.656 0.413-0.811 0.413-1.872 0.413-3.994v-0.505c0-2.122 0-3.183-0.413-3.994-0.363-0.713-0.943-1.293-1.656-1.656-0.811-0.413-1.872-0.413-3.994-0.413h-10.611c-2.122 0-3.183 0-3.994 0.413-0.713 0.363-1.293 0.943-1.656 1.656-0.413 0.811-0.413 1.872-0.413 3.994v0.505c0 2.122 0 3.183 0.413 3.994 0.363 0.713 0.943 1.293 1.656 1.656 0.811 0.413 1.872 0.413 3.994 0.413z"></path>
</symbol>
<symbol id="icon-mail-01" viewBox="0 0 30 32">
<path fill="none" opacity="0.8" stroke="#fafafa" style="stroke: var(--color1, #fafafa)" stroke-linejoin="round" stroke-linecap="round" stroke-miterlimit="4" stroke-width="1.6842" d="M2.526 9.684l10.314 7.22c0.835 0.585 1.253 0.877 1.707 0.99 0.401 0.1 0.821 0.1 1.222 0 0.454-0.113 0.872-0.406 1.707-0.99l10.314-7.22M8.589 26.105h13.137c2.122 0 3.183 0 3.994-0.413 0.713-0.363 1.293-0.943 1.656-1.656 0.413-0.811 0.413-1.872 0.413-3.994v-8.084c0-2.122 0-3.183-0.413-3.994-0.363-0.713-0.943-1.293-1.656-1.656-0.811-0.413-1.872-0.413-3.994-0.413h-13.137c-2.122 0-3.183 0-3.994 0.413-0.713 0.363-1.293 0.943-1.656 1.656-0.413 0.811-0.413 1.872-0.413 3.994v8.084c0 2.122 0 3.183 0.413 3.994 0.363 0.713 0.943 1.293 1.656 1.656 0.811 0.413 1.872 0.413 3.994 0.413z"></path>
</symbol>
<symbol id="icon-user-01" viewBox="0 0 30 32">
<path fill="none" opacity="0.8" stroke="#fafafa" style="stroke: var(--color1, #fafafa)" stroke-linejoin="round" stroke-linecap="round" stroke-miterlimit="4" stroke-width="1.6842" d="M25.263 27.368c0-1.763 0-2.644-0.218-3.362-0.49-1.615-1.753-2.878-3.368-3.368-0.717-0.218-1.599-0.218-3.362-0.218h-6.316c-1.763 0-2.644 0-3.361 0.218-1.615 0.49-2.878 1.753-3.368 3.368-0.218 0.717-0.218 1.599-0.218 3.362M20.842 10.316c0 3.139-2.545 5.684-5.684 5.684s-5.684-2.545-5.684-5.684 2.545-5.684 5.684-5.684c3.139 0 5.684 2.545 5.684 5.684z"></path>
</symbol>
<symbol id="icon-logoTablet" viewBox="0 0 32 32">
<path fill="#8baa36" style="fill: var(--color2, #8baa36)" d="M8.727 0h14.545c4.82 0 8.727 3.907 8.727 8.727v14.545c0 4.82-3.907 8.727-8.727 8.727h-14.545c-4.82 0-8.727-3.907-8.727-8.727v-14.545c0-4.82 3.907-8.727 8.727-8.727z"></path>
<path fill="none" stroke="#fafafa" style="stroke: var(--color1, #fafafa)" stroke-linejoin="round" stroke-linecap="round" stroke-miterlimit="4" stroke-width="1.4545" d="M7.273 7.347v3.966c0 1.132 0.494 2.135 1.26 2.784 0.375 0.317 0.622 0.746 0.622 1.221v6.62c0 0.736 0.633 1.333 1.412 1.333s1.412-0.597 1.412-1.333v-6.62c0-0.476 0.248-0.904 0.622-1.221 0.766-0.649 1.26-1.652 1.26-2.784v0"></path>
<path fill="none" stroke="#fafafa" style="stroke: var(--color1, #fafafa)" stroke-linejoin="round" stroke-linecap="round" stroke-miterlimit="4" stroke-width="1.4545" d="M10.567 11.717v-4.444"></path>
<path fill="none" stroke="#fafafa" style="stroke: var(--color1, #fafafa)" stroke-linejoin="round" stroke-linecap="round" stroke-miterlimit="4" stroke-width="1.4545" d="M23.273 8.208c0-0.491-0.422-0.889-0.941-0.889h-0.941c-1.559 0-2.823 1.194-2.823 2.667v5.333c0 1.159 0.788 2.136 1.882 2.503v4.117c0 0.736 0.633 1.333 1.412 1.333s1.412-0.597 1.412-1.333v-13.732z"></path>
</symbol>
<symbol id="icon-logo" viewBox="0 0 32 32">
<path fill="#8baa36" style="fill: var(--color2, #8baa36)" d="M9.6 0h12.8c5.302 0 9.6 4.298 9.6 9.6v12.8c0 5.302-4.298 9.6-9.6 9.6h-12.8c-5.302 0-9.6-4.298-9.6-9.6v-12.8c0-5.302 4.298-9.6 9.6-9.6z"></path>
<path fill="none" stroke="#fafafa" style="stroke: var(--color1, #fafafa)" stroke-linejoin="round" stroke-linecap="round" stroke-miterlimit="4" stroke-width="1.6" d="M7.039 7.117v4.072c0 1.163 0.507 2.192 1.294 2.858 0.385 0.326 0.639 0.766 0.639 1.254v6.797c0 0.756 0.649 1.369 1.449 1.369s1.449-0.613 1.449-1.369v-6.797c0-0.488 0.254-0.928 0.639-1.254 0.787-0.666 1.294-1.696 1.294-2.858v0"></path>
<path fill="none" stroke="#fafafa" style="stroke: var(--color1, #fafafa)" stroke-linejoin="round" stroke-linecap="round" stroke-miterlimit="4" stroke-width="1.6" d="M10.42 11.603v-4.563"></path>
<path fill="none" stroke="#fafafa" style="stroke: var(--color1, #fafafa)" stroke-linejoin="round" stroke-linecap="round" stroke-miterlimit="4" stroke-width="1.6" d="M23.466 8c0-0.504-0.433-0.913-0.966-0.913h-0.966c-1.601 0-2.899 1.226-2.899 2.738v5.476c0 1.19 0.809 2.193 1.933 2.57v4.227c0 0.756 0.649 1.369 1.449 1.369s1.449-0.613 1.449-1.369v-14.098z"></path>
</symbol>
</defs>
</svg>
